<svg width="75" height="75" viewBox="0 0 75 75" fill="none" xmlns="http://www.w3.org/2000/svg">
<path d="M36.3945 2.5758C36.7757 1.15323 38.5466 0 40.35 0H63.2071L57.6856 20.6064H31.5632L36.3945 2.5758Z" fill="#84FF00"/>
<path d="M68.4316 0H74.9622L54.9284 74.5H48.3978L68.4316 0Z" fill="#84FF00"/>
<path d="M4.75056 23.1822C5.13174 21.7596 6.90267 20.6064 8.70605 20.6064H31.5632L26.7319 38.637C26.3507 40.0596 24.5798 41.2128 22.7764 41.2128H3.18458C1.3812 41.2128 0.228279 40.0596 0.609457 38.637L4.75056 23.1822Z" fill="#84FF00"/>
<path d="M25.9453 20.6064C29.4492 20.6113 31.8597 19.5 32.5393 16.9637L37.181 20.6064C33.7495 20.6249 31.3238 21.5 30.5871 24.2492L25.9453 20.6064Z" fill="#84FF00"/>
</svg>
