<svg width="357" height="75" viewBox="0 0 357 75" fill="none" xmlns="http://www.w3.org/2000/svg">
<path d="M131.172 20.46C139.232 20.46 145.308 26.226 145.308 33.914C145.308 41.726 139.17 47.244 131.172 47.244H117.594V62H111.58V20.46H131.172ZM117.594 41.478H130.986C135.884 41.478 139.232 38.378 139.232 33.914C139.232 29.512 135.822 26.35 130.986 26.35H117.594V41.478ZM175.347 35.774V31.31H181.175V62H175.347V57.226H175.099C172.805 60.512 169.147 62.806 164.063 62.868C155.135 62.992 148.501 56.234 148.501 46.624C148.501 37.076 155.011 30.318 164.125 30.442C169.085 30.504 172.805 32.674 175.099 35.774H175.347ZM164.931 57.164C171.193 57.164 175.285 52.39 175.285 46.624C175.285 40.796 171.193 36.084 164.931 36.084C158.483 36.084 154.391 40.796 154.391 46.624C154.391 52.452 158.483 57.164 164.931 57.164ZM205.273 31.31H211.163V37.262H205.335C199.755 37.262 195.973 40.92 195.973 47.244V62H190.083V31.31H195.787V36.58H196.035C197.647 33.108 200.871 31.31 205.273 31.31ZM245.372 62H237.932L227.764 49.104H222.432V62H216.542V17.36H222.432V43.586H228.198L238.118 31.31H245L233.158 46.314L245.372 62ZM262.581 30.442C272.749 30.442 279.135 38.502 278.329 48.732H252.971C253.405 53.506 257.373 57.226 262.953 57.226C266.921 57.226 270.207 55.366 271.571 52.452H277.709C275.663 58.962 269.897 62.868 262.705 62.868C252.785 62.868 246.709 55.428 246.709 46.686C246.709 37.696 253.157 30.442 262.581 30.442ZM262.457 36.084C257.621 36.084 253.963 39.184 253.095 43.524H271.943C271.013 39.122 267.355 36.084 262.457 36.084ZM299.151 30.442C309.319 30.442 315.705 38.502 314.899 48.732H289.541C289.975 53.506 293.943 57.226 299.523 57.226C303.491 57.226 306.777 55.366 308.141 52.452H314.279C312.233 58.962 306.467 62.868 299.275 62.868C289.355 62.868 283.279 55.428 283.279 46.686C283.279 37.696 289.727 30.442 299.151 30.442ZM299.027 36.084C294.191 36.084 290.533 39.184 289.665 43.524H308.513C307.583 39.122 303.925 36.084 299.027 36.084ZM338.58 30.442C347.694 30.318 354.204 37.076 354.204 46.624C354.204 56.234 347.57 62.992 338.642 62.868C333.744 62.806 329.9 60.512 327.606 57.226H327.358V74.4H321.53V31.31H327.358V35.774H327.668C329.9 32.674 333.744 30.504 338.58 30.442ZM337.774 57.164C344.222 57.164 348.314 52.452 348.314 46.624C348.314 40.796 344.222 36.084 337.774 36.084C331.512 36.084 327.42 40.796 327.42 46.624C327.42 52.39 331.512 57.164 337.774 57.164Z" fill="#84FF00"/>
<path d="M45.9968 2.5758C46.378 1.15323 48.1489 0 49.9523 0H72.8094L67.2879 20.6064H41.1655L45.9968 2.5758Z" fill="#84FF00"/>
<path d="M78.0339 0H84.5645L64.5307 74.5H58.0001L78.0339 0Z" fill="#84FF00"/>
<path d="M14.3529 23.1822C14.734 21.7596 16.505 20.6064 18.3083 20.6064H41.1655L36.3342 38.637C35.953 40.0596 34.1821 41.2128 32.3787 41.2128H12.7869C10.9835 41.2128 9.83057 40.0596 10.2118 38.637L14.3529 23.1822Z" fill="#84FF00"/>
<path d="M35.5476 20.6064C39.0515 20.6113 41.4619 19.5 42.1415 16.9637L46.7833 20.6064C43.3518 20.6249 40.9261 21.5 40.1894 24.2492L35.5476 20.6064Z" fill="#84FF00"/>
</svg>
